<svg width="20" height="20" viewBox="0 0 20 20" fill="none" xmlns="http://www.w3.org/2000/svg">
<path d="M15.8837 5.88083L16.4443 6.3791L16.4443 6.3791L15.8837 5.88083ZM9.43944 12.0017C9.16425 12.3113 9.19214 12.7854 9.50172 13.0606C9.81131 13.3357 10.2854 13.3079 10.5606 12.9983L9.43944 12.0017ZM14.1192 4.11629L13.6209 3.55574L13.6209 3.55574L14.1192 4.11629ZM7.00172 9.43944C6.69214 9.71463 6.66425 10.1887 6.93944 10.4983C7.21463 10.8079 7.68868 10.8357 7.99827 10.5606L7.00172 9.43944ZM15.8333 4.16667L15.303 4.697L15.303 4.697L15.8333 4.16667ZM4.16666 15.8333L3.49923 15.4912C3.38006 15.7237 3.39047 16.0015 3.52671 16.2244C3.66296 16.4474 3.9054 16.5833 4.16666 16.5833V15.8333ZM15.3231 5.38256L9.43944 12.0017L10.5606 12.9983L16.4443 6.3791L15.3231 5.38256ZM13.6209 3.55574L7.00172 9.43944L7.99827 10.5606L14.6174 4.67685L13.6209 3.55574ZM16.3637 3.63634C15.6149 2.88759 14.4123 2.85225 13.6209 3.55574L14.6174 4.67685C14.8153 4.50101 15.1159 4.50985 15.303 4.697L16.3637 3.63634ZM16.4443 6.3791C17.1477 5.58768 17.1124 4.38508 16.3637 3.63634L15.303 4.697C15.4902 4.88415 15.499 5.18474 15.3231 5.38256L16.4443 6.3791ZM8.61537 14.4487C8.23841 14.8257 7.63482 15.0188 6.79452 15.0857C5.93531 15.1541 5.08356 15.0833 4.16666 15.0833V16.5833C4.91644 16.5833 5.98469 16.6549 6.91358 16.581C7.86138 16.5055 8.91397 16.2715 9.67603 15.5094L8.61537 14.4487ZM4.8341 16.1754C5.37014 15.1296 5.26931 13.9426 5.2364 13.1161C5.19832 12.1596 5.24924 11.6866 5.55124 11.3846L4.49058 10.3239C3.65356 11.161 3.70448 12.3442 3.73759 13.1758C3.77588 14.1374 3.81744 14.8704 3.49923 15.4912L4.8341 16.1754ZM5.55124 11.3846C6.39738 10.5385 7.76924 10.5385 8.61537 11.3846L9.67603 10.3239C8.24411 8.89202 5.92251 8.89202 4.49058 10.3239L5.55124 11.3846ZM8.61537 11.3846C9.46151 12.2307 9.46151 13.6026 8.61537 14.4487L9.67603 15.5094C11.108 14.0775 11.108 11.7559 9.67603 10.3239L8.61537 11.3846Z" fill="white"/>
</svg>
