<svg width="20" height="20" viewBox="0 0 20 20" fill="none" xmlns="http://www.w3.org/2000/svg">
<path d="M16.6667 8.33333V6C16.6667 5.06658 16.6667 4.59987 16.485 4.24335C16.3252 3.92975 16.0703 3.67478 15.7567 3.51499C15.4001 3.33333 14.9334 3.33333 14 3.33333H4.33334C3.39992 3.33333 2.93321 3.33333 2.57669 3.51499C2.26308 3.67478 2.00812 3.92975 1.84833 4.24335C1.66667 4.59987 1.66667 5.06658 1.66667 6V14C1.66667 14.9334 1.66667 15.4001 1.84833 15.7567C2.00812 16.0703 2.26308 16.3252 2.57669 16.485C2.93321 16.6667 3.39992 16.6667 4.33334 16.6667H14C14.9334 16.6667 15.4001 16.6667 15.7567 16.485C16.0703 16.3252 16.3252 16.0703 16.485 15.7567C16.6667 15.4001 16.6667 14.9334 16.6667 14V12.0833M13 11.6667H17C17.4667 11.6667 17.7001 11.6667 17.8783 11.5758C18.0351 11.4959 18.1626 11.3685 18.2425 11.2117C18.3333 11.0334 18.3333 10.8 18.3333 10.3333V9.66667C18.3333 9.19996 18.3333 8.9666 18.2425 8.78834C18.1626 8.63154 18.0351 8.50406 17.8783 8.42416C17.7001 8.33333 17.4667 8.33333 17 8.33333H13C12.5333 8.33333 12.2999 8.33333 12.1217 8.42416C11.9649 8.50406 11.8374 8.63154 11.7575 8.78834C11.6667 8.9666 11.6667 9.19996 11.6667 9.66667V10.3333C11.6667 10.8 11.6667 11.0334 11.7575 11.2117C11.8374 11.3685 11.9649 11.4959 12.1217 11.5758C12.2999 11.6667 12.5333 11.6667 13 11.6667Z" stroke="white" stroke-width="1.5"/>
</svg>
