<svg width="20" height="20" viewBox="0 0 20 20" fill="none" xmlns="http://www.w3.org/2000/svg">
<g clip-path="url(#clip0_4_10117)">
<path d="M9.16665 0.833333V8.99408C9.16665 9.36529 9.61545 9.55119 9.87794 9.2887L11.3215 7.84518C11.9723 7.1943 13.0276 7.1943 13.6785 7.84518L15.122 9.28871C15.3845 9.55119 15.8333 9.36529 15.8333 8.99408V1.66667M7.49998 19.1667H12.5C14.8335 19.1667 16.0003 19.1667 16.8916 18.7125C17.6756 18.3131 18.313 17.6756 18.7125 16.8916C19.1666 16.0003 19.1666 14.8336 19.1666 12.5V7.5C19.1666 5.16645 19.1666 3.99967 18.7125 3.10837C18.313 2.32436 17.6756 1.68695 16.8916 1.28747C16.0003 0.833333 14.8335 0.833333 12.5 0.833333H7.49998C5.16643 0.833333 3.99965 0.833333 3.10835 1.28747C2.32434 1.68695 1.68692 2.32436 1.28745 3.10837C0.833313 3.99967 0.833313 5.16645 0.833313 7.5V12.5C0.833313 14.8336 0.833313 16.0003 1.28745 16.8916C1.68692 17.6756 2.32434 18.3131 3.10835 18.7125C3.99965 19.1667 5.16643 19.1667 7.49998 19.1667Z" stroke="white" stroke-width="1.5" stroke-linecap="round"/>
</g>
<defs>
<clipPath id="clip0_4_10117">
<rect width="20" height="20" fill="white"/>
</clipPath>
</defs>
</svg>
