<svg width="52" height="18" viewBox="0 0 52 18" fill="none" xmlns="http://www.w3.org/2000/svg">
<path d="M7.66543 4.81545V7.03874H0.0167236V4.81545H7.66543ZM1.90508 1.89341H5.04078V13.3434C5.04078 13.7298 5.10431 14.0262 5.23135 14.2327C5.36417 14.4338 5.53742 14.5715 5.75108 14.6456C5.96475 14.7197 6.20152 14.7567 6.46138 14.7567C6.65772 14.7567 6.83674 14.7435 6.99844 14.717C7.16591 14.6906 7.29295 14.6667 7.37957 14.6456L7.90797 16.8927C7.7405 16.9456 7.50084 17.0039 7.18901 17.0674C6.88294 17.1309 6.50758 17.168 6.06292 17.1785C5.27755 17.1997 4.57014 17.0912 3.94069 16.853C3.31124 16.6095 2.81172 16.2336 2.44213 15.7255C2.07832 15.2173 1.8993 14.5821 1.90508 13.8198V1.89341Z" fill="#574EFA"/>
<path d="M15.8131 17.25C14.5138 17.25 13.3877 16.988 12.4349 16.4639C11.482 15.9398 10.7429 15.2067 10.2174 14.2644C9.69762 13.3222 9.43775 12.2211 9.43775 10.9613C9.43775 9.7014 9.69762 8.59769 10.2174 7.65014C10.7429 6.7026 11.482 5.96679 12.4349 5.44273C13.3877 4.91867 14.5138 4.65664 15.8131 4.65664C17.1124 4.65664 18.2385 4.91867 19.1914 5.44273C20.1442 5.96679 20.8805 6.7026 21.4002 7.65014C21.9257 8.59769 22.1885 9.7014 22.1885 10.9613C22.1885 12.2211 21.9257 13.3222 21.4002 14.2644C20.8805 15.2067 20.1442 15.9398 19.1914 16.4639C18.2385 16.988 17.1124 17.25 15.8131 17.25ZM15.8304 14.9473C16.535 14.9473 17.124 14.77 17.5975 14.4153C18.0711 14.0553 18.4233 13.5736 18.6543 12.9702C18.8911 12.3667 19.0095 11.6944 19.0095 10.9533C19.0095 10.2069 18.8911 9.532 18.6543 8.92854C18.4233 8.31978 18.0711 7.83542 17.5975 7.47546C17.124 7.1155 16.535 6.93552 15.8304 6.93552C15.1086 6.93552 14.508 7.1155 14.0287 7.47546C13.5552 7.83542 13.2 8.31978 12.9633 8.92854C12.7323 9.532 12.6168 10.2069 12.6168 10.9533C12.6168 11.6944 12.7323 12.3667 12.9633 12.9702C13.2 13.5736 13.5552 14.0553 14.0287 14.4153C14.508 14.77 15.1086 14.9473 15.8304 14.9473Z" fill="#574EFA"/>
<path d="M31.3583 4.81545V7.03874H23.7096V4.81545H31.3583ZM25.598 1.89341H28.7337V13.3434C28.7337 13.7298 28.7972 14.0262 28.9242 14.2327C29.0571 14.4338 29.2303 14.5715 29.444 14.6456C29.6576 14.7197 29.8944 14.7567 30.1543 14.7567C30.3506 14.7567 30.5296 14.7435 30.6913 14.717C30.8588 14.6906 30.9858 14.6667 31.0725 14.6456L31.6009 16.8927C31.4334 16.9456 31.1937 17.0039 30.8819 17.0674C30.5758 17.1309 30.2005 17.168 29.7558 17.1785C28.9704 17.1997 28.263 17.0912 27.6336 16.853C27.0041 16.6095 26.5046 16.2336 26.135 15.7255C25.7712 15.2173 25.5922 14.5821 25.598 13.8198V1.89341Z" fill="#574EFA"/>
<path d="M39.5926 17.25C38.2586 17.25 37.1066 16.9959 36.1364 16.4877C35.172 15.9743 34.43 15.249 33.9102 14.3121C33.3905 13.3698 33.1306 12.2608 33.1306 10.9851C33.1306 9.73051 33.3905 8.62945 33.9102 7.68191C34.4357 6.72907 35.1691 5.98797 36.1104 5.45861C37.0517 4.92397 38.1576 4.65664 39.428 4.65664C40.2481 4.65664 41.0219 4.77839 41.7495 5.0219C42.4829 5.26011 43.1297 5.63066 43.6898 6.13354C44.2558 6.63643 44.7004 7.27695 45.0238 8.0551C45.3472 8.82796 45.5089 9.74904 45.5089 10.8183V11.6997H34.6032V9.76227H42.5031C42.4973 9.21174 42.3674 8.72209 42.1133 8.29331C41.8592 7.85924 41.5041 7.51781 41.0479 7.26901C40.5974 7.02021 40.0719 6.89581 39.4713 6.89581C38.8303 6.89581 38.2673 7.03874 37.7822 7.32459C37.2971 7.60515 36.9189 7.9757 36.6475 8.43624C36.3818 8.89148 36.2461 9.39172 36.2404 9.93696V11.6282C36.2404 12.3376 36.3818 12.9463 36.6648 13.4545C36.9478 13.9574 37.3433 14.3438 37.8515 14.6138C38.3597 14.8785 38.9545 15.0108 39.6359 15.0108C40.0921 15.0108 40.505 14.9526 40.8746 14.8361C41.2442 14.7144 41.5647 14.5371 41.8361 14.3041C42.1075 14.0712 42.3125 13.7827 42.4511 13.4386L45.379 13.7404C45.1942 14.4497 44.8419 15.0691 44.3222 15.5984C43.8082 16.1225 43.1499 16.5301 42.3472 16.8212C41.5445 17.1071 40.6263 17.25 39.5926 17.25Z" fill="#574EFA"/>
<path d="M51.1619 0.75V17.0118H48.0262V0.75H51.1619Z" fill="#574EFA"/>
</svg>
