<svg width="22" height="28" viewBox="0 0 22 28" fill="none" xmlns="http://www.w3.org/2000/svg">
<path fill-rule="evenodd" clip-rule="evenodd" d="M20.1611 8.73635L18.8007 7.37592V3.18698C18.8007 2.69462 18.3971 2.29105 17.9007 2.29105H16.5286C16.0363 2.29105 15.6327 2.69462 15.6327 3.18698V4.20789L11.779 0.354194C11.3108 -0.117983 10.5441 -0.117983 10.0759 0.354194L1.69377 8.73635C1.22159 9.20449 0.838196 10.1327 0.838196 10.7946V12.2716C5.26536 15.5607 10.7458 17.5059 16.6824 17.5059C18.1594 17.5059 19.6083 17.3849 21.0167 17.1548V10.7946C21.0167 10.1327 20.6333 9.20449 20.1611 8.73635ZM12.7631 22.8128V27.5467C12.7631 27.9502 13.2514 28.152 13.538 27.8655L18.5906 22.8128H19.81C20.4719 22.8128 21.0167 22.268 21.0167 21.6062V18.5108C19.6083 18.7408 18.1594 18.8619 16.6824 18.8619C10.7458 18.8619 5.26536 16.9167 0.838196 13.6316V21.6062C0.838196 22.268 1.38302 22.8128 2.04487 22.8128H12.7631Z" fill="#574EFA"/>
</svg>
